<svg width="26" height="26" viewBox="0 0 26 26" fill="none" xmlns="http://www.w3.org/2000/svg">
<path d="M13 4.72727C12.6652 4.72727 12.3847 4.61382 12.1585 4.38691C11.9316 4.16079 11.8182 3.8803 11.8182 3.54545V1.18182C11.8182 0.84697 11.9316 0.566091 12.1585 0.339182C12.3847 0.113061 12.6652 0 13 0C13.3348 0 13.6157 0.113061 13.8426 0.339182C14.0688 0.566091 14.1818 0.84697 14.1818 1.18182V3.54545C14.1818 3.8803 14.0688 4.16079 13.8426 4.38691C13.6157 4.61382 13.3348 4.72727 13 4.72727ZM18.85 7.15C18.6333 6.93333 18.525 6.6623 18.525 6.33691C18.525 6.0123 18.6333 5.73182 18.85 5.49545L20.5045 3.81136C20.7409 3.575 21.0214 3.45682 21.346 3.45682C21.6714 3.45682 21.9523 3.575 22.1886 3.81136C22.4053 4.02803 22.5136 4.30379 22.5136 4.63864C22.5136 4.97348 22.4053 5.24924 22.1886 5.46591L20.5045 7.15C20.2879 7.36667 20.0121 7.475 19.6773 7.475C19.3424 7.475 19.0667 7.36667 18.85 7.15ZM22.4545 14.1818C22.1197 14.1818 21.8392 14.0684 21.6131 13.8415C21.3862 13.6153 21.2727 13.3348 21.2727 13C21.2727 12.6652 21.3862 12.3843 21.6131 12.1574C21.8392 11.9312 22.1197 11.8182 22.4545 11.8182H24.8182C25.153 11.8182 25.4335 11.9312 25.6596 12.1574C25.8865 12.3843 26 12.6652 26 13C26 13.3348 25.8865 13.6153 25.6596 13.8415C25.4335 14.0684 25.153 14.1818 24.8182 14.1818H22.4545ZM13 26C12.6652 26 12.3847 25.8865 12.1585 25.6596C11.9316 25.4335 11.8182 25.153 11.8182 24.8182V22.4545C11.8182 22.1197 11.9316 21.8392 12.1585 21.6131C12.3847 21.3862 12.6652 21.2727 13 21.2727C13.3348 21.2727 13.6157 21.3862 13.8426 21.6131C14.0688 21.8392 14.1818 22.1197 14.1818 22.4545V24.8182C14.1818 25.153 14.0688 25.4335 13.8426 25.6596C13.6157 25.8865 13.3348 26 13 26ZM5.49545 7.15L3.81136 5.49545C3.575 5.25909 3.45682 4.97348 3.45682 4.63864C3.45682 4.30379 3.575 4.02803 3.81136 3.81136C4.02803 3.5947 4.30379 3.48636 4.63864 3.48636C4.97348 3.48636 5.24924 3.5947 5.46591 3.81136L7.15 5.49545C7.36667 5.71212 7.475 5.98788 7.475 6.32273C7.475 6.65758 7.36667 6.93333 7.15 7.15C6.91364 7.36667 6.63788 7.475 6.32273 7.475C6.00758 7.475 5.73182 7.36667 5.49545 7.15ZM20.5045 22.1886L18.85 20.5045C18.6333 20.2682 18.525 19.9877 18.525 19.6631C18.525 19.3377 18.6333 19.0667 18.85 18.85C19.0667 18.6333 19.3377 18.525 19.6631 18.525C19.9877 18.525 20.2682 18.6333 20.5045 18.85L22.1886 20.5045C22.425 20.7212 22.5381 20.997 22.5278 21.3318C22.5184 21.6667 22.4053 21.9523 22.1886 22.1886C21.9523 22.425 21.6667 22.5432 21.3318 22.5432C20.997 22.5432 20.7212 22.425 20.5045 22.1886ZM1.18182 14.1818C0.84697 14.1818 0.566485 14.0684 0.340364 13.8415C0.113455 13.6153 0 13.3348 0 13C0 12.6652 0.113455 12.3843 0.340364 12.1574C0.566485 11.9312 0.84697 11.8182 1.18182 11.8182H3.54545C3.8803 11.8182 4.16118 11.9312 4.38809 12.1574C4.61421 12.3843 4.72727 12.6652 4.72727 13C4.72727 13.3348 4.61421 13.6153 4.38809 13.8415C4.16118 14.0684 3.8803 14.1818 3.54545 14.1818H1.18182ZM3.81136 22.1886C3.5947 21.972 3.48636 21.6962 3.48636 21.3614C3.48636 21.0265 3.5947 20.7508 3.81136 20.5341L5.49545 18.85C5.71212 18.6333 5.98315 18.525 6.30855 18.525C6.63315 18.525 6.91364 18.6333 7.15 18.85C7.38636 19.0864 7.50455 19.3672 7.50455 19.6926C7.50455 20.0172 7.38636 20.2977 7.15 20.5341L5.49545 22.1886C5.25909 22.425 4.97348 22.5432 4.63864 22.5432C4.30379 22.5432 4.02803 22.425 3.81136 22.1886ZM13 20.0909C11.0303 20.0909 9.35606 19.4015 7.97727 18.0227C6.59848 16.6439 5.90909 14.9697 5.90909 13C5.90909 11.0303 6.59848 9.35606 7.97727 7.97727C9.35606 6.59848 11.0303 5.90909 13 5.90909C14.9697 5.90909 16.6439 6.59848 18.0227 7.97727C19.4015 9.35606 20.0909 11.0303 20.0909 13C20.0909 14.9697 19.4015 16.6439 18.0227 18.0227C16.6439 19.4015 14.9697 20.0909 13 20.0909ZM13 17.7273C14.3 17.7273 15.4129 17.2644 16.3386 16.3386C17.2644 15.4129 17.7273 14.3 17.7273 13C17.7273 11.7 17.2644 10.5871 16.3386 9.66136C15.4129 8.73561 14.3 8.27273 13 8.27273C11.7 8.27273 10.5871 8.73561 9.66136 9.66136C8.73561 10.5871 8.27273 11.7 8.27273 13C8.27273 14.3 8.73561 15.4129 9.66136 16.3386C10.5871 17.2644 11.7 17.7273 13 17.7273Z" fill="#A1A1A1"/>
</svg>
